<?xml version="1.0" encoding="UTF-8" standalone="no"?>
<svg
   xmlns:dc="http://purl.org/dc/elements/1.1/"
   xmlns:cc="http://creativecommons.org/ns#"
   xmlns:rdf="http://www.w3.org/1999/02/22-rdf-syntax-ns#"
   xmlns:svg="http://www.w3.org/2000/svg"
   xmlns="http://www.w3.org/2000/svg"
   height="100"
   width="100"
   id="svg8"
   xml:space="preserve"
   enable-background="new 0 0 128 128"
   viewBox="0 0 100 100"
   y="0px"
   x="0px"
   version="1.1"><metadata
     id="metadata14"><rdf:RDF><cc:Work
         rdf:about=""><dc:format>image/svg+xml</dc:format><dc:type
           rdf:resource="http://purl.org/dc/dcmitype/StillImage" /><dc:title></dc:title></cc:Work></rdf:RDF></metadata><defs
     id="defs12" /><path
     id="path2"
     d="m 26.123402,14.740234 v 7.1 h 47.377876 v -7.1 z m -7.874042,10.327272 2.19606,10.198687 h 18.201314 c 3.098183,-2.065456 6.841313,-3.227272 11.101313,-3.227272 4.26,0 8.003129,1.290912 11.101313,3.227272 h 18.201314 l 2.19606,-10.198687 z M 14.248047,38.36488 25.866231,85.740234 H 73.629863 L 85.248047,38.36488 Z m 35.5,6.968893 c 13.29636,0 22.332728,9.295549 20.654544,19.106461 -1.549088,8.52 -10.714544,14.457171 -20.654544,14.457171 -9.94,0 -19.105456,-5.937171 -20.654544,-14.457171 -1.807272,-9.810912 7.358184,-19.106461 20.654544,-19.106461 z m -4.011398,8.496799 c -1.195328,0.01712 -2.43012,0.09413 -3.723974,0.257179 -0.490428,0.490428 -0.490428,1.27953 0,1.769958 l 7.208417,7.208416 c -3.354782,0.228287 -5.92163,2.548992 -5.799004,5.246837 0.129088,2.84 2.969599,4.906462 6.325959,4.906462 3.35636,0 6.196871,-2.19555 6.325959,-4.906462 0.03801,-0.874445 -0.206748,-1.680744 -0.627809,-2.400287 -0.05159,-0.135769 -0.133767,-0.260689 -0.23448,-0.375671 -0.29893,-0.416317 -0.665737,-0.789371 -1.094249,-1.116939 l -7.921942,-7.92195 c 0.990767,-1.43205 5.294398,-1.494057 9.853268,-1.855676 -3.484779,-0.370937 -6.726154,-0.863278 -10.312145,-0.811867 z"
     style="fill:#ffffff;stroke-width:1.29090881" /></svg>