<?xml version="1.0" encoding="UTF-8" standalone="no"?>
<svg
   xmlns:dc="http://purl.org/dc/elements/1.1/"
   xmlns:cc="http://creativecommons.org/ns#"
   xmlns:rdf="http://www.w3.org/1999/02/22-rdf-syntax-ns#"
   xmlns:svg="http://www.w3.org/2000/svg"
   xmlns="http://www.w3.org/2000/svg"
   xmlns:sodipodi="http://sodipodi.sourceforge.net/DTD/sodipodi-0.dtd"
   xmlns:inkscape="http://www.inkscape.org/namespaces/inkscape"
   version="1.1"
   x="0px"
   y="0px"
   viewBox="0 0 100 100"
   enable-background="new 0 0 100 100"
   xml:space="preserve"
   id="svg2"
   inkscape:version="0.91 r13725"
   sodipodi:docname="synth.svg"><metadata
     id="metadata16"><rdf:RDF><cc:Work
         rdf:about=""><dc:format>image/svg+xml</dc:format><dc:type
           rdf:resource="http://purl.org/dc/dcmitype/StillImage" /></cc:Work></rdf:RDF></metadata><defs
     id="defs14" /><sodipodi:namedview
     pagecolor="#ffffff"
     bordercolor="#666666"
     borderopacity="1"
     objecttolerance="10"
     gridtolerance="10"
     guidetolerance="10"
     inkscape:pageopacity="0"
     inkscape:pageshadow="2"
     inkscape:window-width="719"
     inkscape:window-height="480"
     id="namedview12"
     showgrid="false"
     inkscape:zoom="2.36"
     inkscape:cx="-6.3559322"
     inkscape:cy="50"
     inkscape:window-x="49"
     inkscape:window-y="19"
     inkscape:window-maximized="0"
     inkscape:current-layer="svg2" /><g
     display="none"
     id="g4"><rect
       x="-728"
       y="-227"
       display="inline"
       fill="#000000"
       width="1158"
       height="397"
       id="rect6" /></g><g
     id="g8"
     style="fill:#ffffff"><path
       d="M82.063,13.5H18.438c-2.723,0-4.938,2.215-4.938,4.938v63.125c0,2.723,2.215,4.938,4.938,4.938h63.625   c2.723,0,4.938-2.215,4.938-4.938V18.438C87,15.715,84.785,13.5,82.063,13.5z M35.156,58.25c0.535,0,0.969-0.434,0.969-0.969V16.5   h8.313v40.781c0,0.535,0.434,0.969,0.969,0.969H49.5V83.5H33V58.25H35.156z M50.5,58.25h4.094c0.535,0,0.969-0.434,0.969-0.969   V16.5h8.25v40.781c0,0.535,0.434,0.969,0.969,0.969H67V83.5H50.5V58.25z M16.5,81.563V18.438c0-1.068,0.869-1.938,1.938-1.938H25   v40.781c0,0.535,0.434,0.969,0.969,0.969H32V83.5H18.438C17.369,83.5,16.5,82.631,16.5,81.563z M84,81.563   c0,1.068-0.869,1.938-1.938,1.938H68V58.25h5.969c0.535,0,0.969-0.434,0.969-0.969V16.5h7.125c1.068,0,1.938,0.869,1.938,1.938   V81.563z"
       id="path10"
       style="fill:#ffffff" /></g></svg>